<?xml version="1.0" encoding="UTF-8" standalone="no"?>
<!-- Created with Inkscape (http://www.inkscape.org/) -->

<svg
   width="188.97638"
   height="188.97638"
   viewBox="0 0 50 50"
   version="1.1"
   id="svg1"
   xml:space="preserve"
   xmlns:xlink="http://www.w3.org/1999/xlink"
   xmlns="http://www.w3.org/2000/svg"
   xmlns:svg="http://www.w3.org/2000/svg"
   xmlns:rdf="http://www.w3.org/1999/02/22-rdf-syntax-ns#"
   xmlns:cc="http://creativecommons.org/ns#"
   xmlns:dc="http://purl.org/dc/elements/1.1/"><title
     id="title25">Halal Korea</title><defs
     id="defs1"><linearGradient
       id="linearGradient206"><stop
         style="stop-color:#22c55e;stop-opacity:1;"
         offset="0"
         id="stop204" /><stop
         style="stop-color:#4ade80;stop-opacity:1;"
         offset="0.5"
         id="stop205" /><stop
         style="stop-color:#34d3e0;stop-opacity:1;"
         offset="1"
         id="stop206" /></linearGradient><linearGradient
       xlink:href="#linearGradient206"
       id="linearGradient209"
       gradientUnits="userSpaceOnUse"
       gradientTransform="matrix(0.99847239,0,0,0.84738778,80.075029,-110.33943)"
       x1="127.36414"
       y1="176.77264"
       x2="166.20471"
       y2="223.43623" /></defs><g
     id="layer1"
     transform="translate(-145.45036,-6.7132697)"><g
       id="g208"
       transform="translate(-55.53107,-26.927733)"><rect
         style="fill:url(#linearGradient209);fill-opacity:1;stroke:none;stroke-width:0;stroke-dasharray:none;stroke-opacity:1"
         id="rect208"
         width="50"
         height="50"
         x="200.98145"
         y="33.641003"
         ry="3.4999974" /><path
         id="path208"
         style="fill:#ffffff;fill-opacity:1;stroke:none;stroke-width:0.290652;stroke-dasharray:none;stroke-opacity:1"
         d="m 225.46824,40.308952 c -0.10187,0.0042 -0.29299,0.115404 -0.58127,0.320674 -2.09101,1.488939 -2.26693,3.583145 -0.47087,5.605415 1.01379,1.14148 1.27592,3.6303 0.38225,3.6303 -0.49876,0 -0.67674,0.4196 -0.374,0.88167 0.33584,0.51253 0.7888,0.14125 -4.10793,3.36369 -7.61714,5.0126 -10.3575,10.89148 -7.53471,16.16588 0.18189,0.33988 0.73231,0.35302 13.3827,0.30567 l 13.19195,-0.0496 0.35447,-1.24966 c 1.83595,-6.4705 0.016,-9.86462 -8.2001,-15.29022 -4.28907,-2.83235 -4.24489,-2.79433 -3.94421,-3.35618 0.17747,-0.3316 0.13951,-0.41697 -0.25308,-0.56625 -1.17966,-0.4485 -0.95143,-2.65948 0.31766,-3.07832 0.68126,-0.22484 1.92059,-1.3563 1.48547,-1.3563 -0.13966,0 -0.586,0.0994 -0.99131,0.22079 -2.34536,0.7027 -4.03359,-2.029316 -2.85678,-4.623111 0.29116,-0.641732 0.36953,-0.931427 0.19976,-0.924473 z m 0.56175,32.050139 c -20.5998,0 -18.61497,-0.29957 -18.79286,2.83575 l -0.10071,1.77836 h 18.75305 18.75306 l 0.13137,-0.95751 c 0.11844,-0.86158 0.0323,-2.04516 -0.21328,-2.91987 -0.19923,-0.7097 -0.88657,-0.73673 -18.53076,-0.73673 z" /></g></g><metadata
     id="metadata25"><rdf:RDF><cc:Work
         rdf:about=""><dc:title>Halal Korea</dc:title><dc:date>05.2025</dc:date><dc:creator><cc:Agent><dc:title>JavohirMX</dc:title></cc:Agent></dc:creator></cc:Work></rdf:RDF></metadata></svg>
